<svg viewBox="0 0 2000 1942" xmlns="http://www.w3.org/2000/svg" xml:space="preserve" style="fill-rule:evenodd;clip-rule:evenodd;stroke-linejoin:round;stroke-miterlimit:2"><g transform="translate(0 .04) scale(3.88303)"><path style="fill:none" d="M0-.011h515.062V500H0z"/><clipPath id="a"><path d="M0-.011h515.062V500H0z"/></clipPath><g clip-path="url(#a)"><path d="M214.292 406.605c-.745-4.699-5.164-7.91-9.863-7.165l-68.117 10.788c-4.699.744-7.91 5.164-7.166 9.863l10.789 68.117c.744 4.699 5.164 7.91 9.863 7.166l68.116-10.789c4.7-.744 7.911-5.164 7.166-9.863l-10.788-68.117zM316.466 390.423c-.744-4.7-5.163-7.911-9.863-7.166l-68.116 10.788c-4.7.745-7.911 5.164-7.166 9.863l10.788 68.117c.745 4.699 5.164 7.91 9.863 7.166l68.117-10.789c4.699-.744 7.91-5.164 7.166-9.863l-10.789-68.116zM418.641 374.24c-.744-4.7-5.164-7.911-9.863-7.166l-68.117 10.788c-4.699.745-7.91 5.164-7.166 9.863l10.789 68.117c.744 4.699 5.164 7.91 9.863 7.166l68.117-10.789c4.699-.744 7.91-5.164 7.166-9.863l-10.789-68.116zM520.816 358.057c-.745-4.699-5.164-7.91-9.863-7.166l-68.117 10.788c-4.699.745-7.91 5.164-7.166 9.864l10.789 68.116c.744 4.699 5.163 7.91 9.863 7.166l68.116-10.789c4.7-.744 7.911-5.163 7.166-9.863l-10.788-68.116zM95.934 320.614c-.744-4.7-5.164-7.911-9.863-7.166l-68.116 10.788c-4.7.745-7.911 5.164-7.166 9.863l10.788 68.117c.744 4.699 5.164 7.91 9.863 7.166l68.117-10.789c4.699-.744 7.91-5.164 7.166-9.863l-10.789-68.116zM198.109 304.431c-.745-4.699-5.164-7.91-9.863-7.166l-68.117 10.788c-4.699.745-7.91 5.164-7.166 9.864l10.789 68.116c.744 4.699 5.164 7.91 9.863 7.166l68.116-10.789c4.7-.744 7.911-5.163 7.166-9.863l-10.788-68.116zM79.751 218.439c-.744-4.699-5.164-7.91-9.863-7.166L1.772 222.062c-4.7.744-7.911 5.163-7.166 9.863l10.788 68.116c.745 4.7 5.164 7.91 9.863 7.166l68.117-10.788c4.699-.745 7.91-5.164 7.166-9.864l-10.789-68.116zM181.926 202.256c-.744-4.699-5.164-7.91-9.863-7.166l-68.117 10.789c-4.699.744-7.91 5.164-7.166 9.863l10.789 68.116c.744 4.7 5.164 7.911 9.863 7.166l68.117-10.788c4.699-.745 7.91-5.164 7.165-9.863l-10.788-68.117zM284.101 186.073c-.745-4.699-5.164-7.91-9.864-7.166l-68.116 10.789c-4.699.744-7.91 5.164-7.166 9.863l10.789 68.116c.744 4.7 5.163 7.911 9.863 7.166l68.116-10.788c4.699-.744 7.91-5.164 7.166-9.863l-10.788-68.117zM386.275 169.89c-.744-4.699-5.164-7.91-9.863-7.166l-68.116 10.789c-4.7.744-7.911 5.164-7.166 9.863l10.788 68.117c.745 4.699 5.164 7.91 9.863 7.166l68.117-10.789c4.699-.744 7.91-5.164 7.166-9.863l-10.789-68.117zM488.45 153.708c-.744-4.7-5.164-7.911-9.863-7.166L410.47 157.33c-4.699.744-7.91 5.164-7.166 9.863l10.789 68.117c.744 4.699 5.164 7.91 9.863 7.166l68.116-10.789c4.7-.744 7.911-5.164 7.166-9.863l-10.788-68.116zM63.568 116.264c-.744-4.699-5.163-7.91-9.863-7.166l-68.116 10.789c-4.699.744-7.91 5.164-7.166 9.863l10.788 68.117c.745 4.699 5.164 7.91 9.864 7.166l68.116-10.789c4.699-.744 7.91-5.164 7.166-9.863l-10.789-68.117zM165.743 100.082c-.744-4.7-5.164-7.911-9.863-7.166l-68.117 10.788c-4.699.744-7.91 5.164-7.166 9.863l10.789 68.117c.744 4.699 5.164 7.91 9.863 7.166l68.117-10.789c4.699-.744 7.91-5.164 7.166-9.863l-10.789-68.116zM370.092 67.716c-.744-4.7-5.163-7.911-9.863-7.166l-68.116 10.788c-4.7.745-7.91 5.164-7.166 9.863l10.788 68.117c.745 4.699 5.164 7.91 9.864 7.166l68.116-10.789c4.699-.744 7.91-5.163 7.166-9.863l-10.789-68.116zM472.267 51.533c-.744-4.699-5.164-7.91-9.863-7.166l-68.117 10.788c-4.699.745-7.91 5.164-7.166 9.864l10.789 68.116c.744 4.699 5.164 7.91 9.863 7.166l68.117-10.789c4.699-.744 7.91-5.163 7.166-9.863l-10.789-68.116zM251.735-18.276c-.744-4.699-5.164-7.91-9.863-7.166l-68.117 10.789c-4.699.744-7.91 5.163-7.166 9.863l10.789 68.116c.744 4.699 5.164 7.91 9.863 7.166l68.116-10.788c4.7-.745 7.911-5.164 7.166-9.864l-10.788-68.116z" style="fill:#323232" transform="translate(20.182 38.828) scale(.93073)"/><path d="M251.735-18.276c-.744-4.699-5.164-7.91-9.863-7.166l-68.117 10.789c-4.699.744-7.91 5.163-7.166 9.863l10.789 68.116c.744 4.699 5.164 7.91 9.863 7.166l68.116-10.788c4.7-.745 7.911-5.164 7.166-9.864l-10.788-68.116z" style="fill:#323232" transform="translate(-74.894 53.933) scale(.93073)"/><path d="M353.909-34.459c-.744-4.699-5.163-7.91-9.863-7.166L275.93-30.836c-4.699.744-7.91 5.164-7.166 9.863l10.789 68.116c.744 4.7 5.163 7.911 9.863 7.166l68.116-10.788c4.699-.745 7.91-5.164 7.166-9.863l-10.789-68.117z" style="fill:#323232" transform="translate(20.182 38.828) scale(.93073)"/></g></g></svg>